<?xml version="1.0" encoding="UTF-8"?>
<svg version="1.1" xmlns="http://www.w3.org/2000/svg" width="1649" height="1659">
<path d="M0 0 C2.18958204 -0.00435495 4.37916255 -0.0095407 6.56874084 -0.01548767 C12.48010626 -0.02880555 18.39140745 -0.02946434 24.30278492 -0.02692437 C29.2550551 -0.02584961 34.20731256 -0.03075096 39.15957999 -0.03552979 C51.51989857 -0.04723175 63.88018183 -0.04641424 76.2405028 -0.03997298 C87.59663722 -0.03448778 98.95265984 -0.04846543 110.30877614 -0.06858569 C120.66764798 -0.08625747 131.02648272 -0.09219423 141.38536906 -0.08894795 C147.55617255 -0.08714361 153.72689249 -0.08968578 159.89768219 -0.10366249 C165.70579486 -0.11632705 171.51372628 -0.11421585 177.32183647 -0.1012516 C179.43963879 -0.09890484 181.55745421 -0.10155131 183.67524147 -0.10987473 C199.47200499 -0.1674282 215.18863324 0.62682559 230.22949219 5.9621582 C230.96304932 6.21562012 231.69660645 6.46908203 232.45239258 6.73022461 C248.83294365 12.62602049 262.41807621 22.41384596 275.04199219 34.2746582 C275.63367188 34.7902832 276.22535156 35.3059082 276.83496094 35.8371582 C297.61241474 54.788565 307.53497155 85.01082725 309.04199219 112.2746582 C309.22487524 118.96018292 309.18593913 125.64998252 309.18383789 132.33740234 C309.18687488 134.34772823 309.19039782 136.35805343 309.19436646 138.36837769 C309.20221522 142.67833086 309.20738514 146.98827591 309.21065712 151.29823494 C309.2166067 158.1304434 309.23318451 164.96260086 309.2519989 171.79478455 C309.25833524 174.14172837 309.26466088 176.48867223 309.27097607 178.83561611 C309.27414188 180.01050968 309.27730769 181.18540325 309.28056943 182.39589965 C309.32250539 198.28410645 309.35560469 214.17228838 309.36791992 230.06054688 C309.37633102 240.80216155 309.3989307 251.54364839 309.43727559 262.28519911 C309.45692713 267.95585562 309.46947714 273.62632153 309.4644413 279.29701424 C309.45975526 284.63816521 309.47381374 289.97895563 309.5014534 295.32003403 C309.50829811 297.26485828 309.50856553 299.20972037 309.50125313 301.15454292 C309.41128053 327.8035476 316.2018355 353.677805 332.98046875 374.89233398 C333.45460835 375.49252413 333.92874794 376.09271427 334.4172554 376.711092 C339.92512912 383.54819701 346.08814495 389.67914534 352.33886719 395.8293457 C353.5850714 397.0673798 354.83051863 398.30617629 356.07525635 399.54568481 C359.31443793 402.76796452 362.56212049 405.98152331 365.81231689 409.19268799 C371.02772062 414.34827577 376.23003182 419.51706741 381.43180084 424.68640518 C383.23191151 426.47273047 385.03587292 428.25508904 386.84051514 430.03683472 C387.95691588 431.14320133 389.07323287 432.24965247 390.18945312 433.35620117 C390.6799968 433.83843643 391.17054047 434.32067169 391.6759491 434.81752014 C394.27260967 437.39793795 396.72530208 440.04520819 399.10319519 442.82891846 C404.40676264 448.94479742 410.20035596 454.59783921 415.9152832 460.32495117 C417.21396198 461.6299059 418.51245441 462.93504611 419.81077576 464.24035645 C424.05225537 468.50274129 428.29894591 472.75991512 432.54589844 477.0168457 C434.01509199 478.49009164 435.48425316 479.96336987 436.95338249 481.43667984 C443.85780736 488.3601253 450.76462066 495.28117709 457.67438465 502.19929397 C465.61889414 510.15356934 473.5550588 518.1160501 481.48421723 526.08562744 C487.63540286 532.2670779 493.79434458 538.4407325 499.95902961 544.60871994 C503.63078398 548.28281252 507.29923272 551.9600612 510.95947456 555.64562607 C514.40707292 559.11669293 517.8642972 562.57788783 521.32874489 566.03213501 C522.58901161 567.29191083 523.84594618 568.55503172 525.0990181 569.82196426 C535.66131532 580.4943982 546.81099244 589.99912217 560.66699219 596.1496582 C561.47765137 596.51913574 562.28831055 596.88861328 563.12353516 597.26928711 C581.70672627 605.60709121 599.5403567 607.7291834 619.68823242 607.65942383 C621.70092067 607.66353987 623.71360653 607.6690068 625.72628784 607.67570496 C630.02582508 607.6873406 634.32523428 607.68994655 638.62478447 607.68534851 C645.44035638 607.6784787 652.255763 607.69450901 659.07130432 607.71374512 C673.54069149 607.75143585 688.01006346 607.76437493 702.47949219 607.7746582 C718.10302934 607.78576362 733.72648889 607.80128732 749.34997326 607.84537077 C756.10810454 607.86359632 762.86604324 607.86766677 769.62419307 607.86043549 C773.84681626 607.85890096 778.06934523 607.86977627 782.2919426 607.88381386 C784.2307493 607.88777614 786.16957453 607.8867617 788.10837364 607.88004112 C824.30208228 607.76433962 855.0241505 618.59422368 881.04199219 644.2746582 C893.99175234 657.20153893 903.14672838 674.02747066 908.35449219 691.4621582 C908.59707764 692.24985596 908.83966309 693.03755371 909.08959961 693.84912109 C913.49145712 709.58159946 913.33744523 726.2981001 913.30078125 742.49926758 C913.30349956 744.55003482 913.30706515 746.60080109 913.31140137 748.65156555 C913.32042788 754.16189587 913.31702181 759.67215032 913.3106432 765.18248177 C913.30553224 770.98579213 913.31028866 776.78909657 913.31341553 782.59240723 C913.31704046 792.33269399 913.31229493 802.0729503 913.30273438 811.81323242 C913.2918527 823.02803473 913.29537932 834.24276428 913.30638719 845.45756483 C913.31550223 855.1363027 913.31672482 864.81501885 913.31150985 874.49375963 C913.30841323 880.25258099 913.30791657 886.0113683 913.31458282 891.77018738 C913.32041741 897.18765304 913.3162492 902.60502612 913.30479431 908.02248192 C913.30218007 909.99473607 913.30285635 911.9669982 913.30731964 913.93924904 C913.32698281 923.52138632 913.13619742 933.000734 912.15472412 942.53869629 C912.07777636 943.28799109 912.0008286 944.03728589 911.92154908 944.80928659 C908.39955322 975.50232751 891.07307655 1002.75684781 867.26464844 1021.89575195 C842.12322847 1040.8743726 813.24642868 1045.5997182 782.48950195 1045.53344727 C780.35564047 1045.53616289 778.22177993 1045.53972702 776.08792114 1045.54406738 C770.33376268 1045.55312619 764.57967654 1045.54967401 758.82551694 1045.54330921 C752.77787675 1045.53821467 746.73024239 1045.54295027 740.68260193 1045.54608154 C730.52919412 1045.54971145 720.37581548 1045.54494804 710.22241211 1045.53540039 C698.51798652 1045.52452068 686.81363064 1045.52804188 675.10920674 1045.5390532 C665.02465521 1045.54815745 654.94012456 1045.54939597 644.85557026 1045.54417586 C638.84806899 1045.541073 632.84060038 1045.54060014 626.83310127 1045.54724884 C621.18177817 1045.55306738 615.53054409 1045.54894368 609.8792305 1045.53746033 C607.81702891 1045.53483756 605.75481969 1045.53553751 603.69262123 1045.53998566 C566.68644132 1045.6123889 535.43710625 1036.43723286 508.47949219 1010.0871582 C502.4420509 1004.0181715 497.46782994 997.62690255 493.04199219 990.2746582 C492.66059082 989.6460791 492.27918945 989.0175 491.88623047 988.36987305 C479.07197494 966.83663953 475.73536644 944.50327056 475.77075195 919.80712891 C475.76635701 917.7654754 475.76105208 915.72382369 475.75491333 913.68217468 C475.74347072 909.30783813 475.73795814 904.93354965 475.73703194 900.55919838 C475.73507893 893.62635082 475.7169579 886.69360155 475.6962738 879.76078796 C475.64725106 862.54084987 475.61625289 845.32088524 475.5949707 828.10089111 C475.57839936 814.71269927 475.55545282 801.32459242 475.51194996 787.93645734 C475.49031309 781.06126254 475.48210263 774.18622978 475.48434269 767.31100333 C475.48266221 763.01298368 475.46853017 758.71506766 475.45112991 754.41708565 C475.44558579 752.44281018 475.44499321 750.46851272 475.45006752 748.49423599 C475.54319195 707.97579733 461.06823708 678.41385458 432.7736702 649.91389847 C429.55296354 646.6858999 426.32435465 643.46593141 423.09204865 640.24954987 C420.44041124 637.61084404 417.7920577 634.96887984 415.14447021 632.32611084 C409.5298064 626.7227868 403.91121488 621.12340948 398.29199219 615.5246582 C391.76029339 609.01671244 385.23033789 602.50703253 378.7045517 595.99315643 C376.10597302 593.40101917 373.50438297 590.81193105 370.90264893 588.22296143 C369.30083595 586.62478286 367.69916427 585.02646267 366.09765625 583.42797852 C365.38269485 582.71818344 364.66773346 582.00838837 363.93110657 581.27708435 C360.7266805 578.07299281 357.61948329 574.8372154 354.66325378 571.40187073 C350.35071395 566.40632211 345.70004545 561.76155915 341.04614258 557.0859375 C340.05613525 556.08800807 339.06630263 555.08990529 338.07662964 554.09164429 C334.85133302 550.84037155 331.62080886 547.59432069 328.38964844 544.34887695 C327.26846878 543.22232761 326.14729304 542.09577436 325.02612114 540.9692173 C320.35543292 536.27693638 315.68331387 531.58608783 311.00747013 526.8989439 C304.35312265 520.22839665 297.70738349 513.54953427 291.07353026 506.85860318 C286.38228073 502.12839963 281.68124681 497.40805806 276.97311014 492.69466335 C274.17409723 489.89203176 271.37925424 487.08554468 268.59489632 484.26834679 C254.70294724 470.22050927 240.97816434 456.69470077 222.72949219 448.3996582 C221.95387939 448.0387207 221.1782666 447.6777832 220.37915039 447.3059082 C207.64377577 441.61675019 193.60664023 438.12288735 179.65226746 438.12989807 C178.82200729 438.12637123 177.99174713 438.12284438 177.13632756 438.11921066 C174.36163128 438.10855931 171.58696937 438.10484878 168.81225586 438.10107422 C166.81927344 438.0947658 164.82629243 438.08799967 162.83331299 438.08081055 C158.54289735 438.0661549 154.25248709 438.05442393 149.96205711 438.04486275 C143.16448313 438.0293756 136.36695523 438.00542323 129.56941223 437.97996521 C110.23974529 437.9088652 90.91005156 437.84914151 71.58032227 437.79785156 C60.90326054 437.7694458 50.2262443 437.73400582 39.5492304 437.69119781 C32.80677195 437.66458359 26.06436492 437.64658109 19.32186449 437.63516057 C15.10366299 437.62596013 10.88552326 437.60856345 6.6673584 437.58898163 C4.72814734 437.58157987 2.78892034 437.57742959 0.84969521 437.57698631 C-36.92575315 437.56139509 -68.63800908 428.212464 -96.08300781 401.5246582 C-108.04679676 389.51305236 -116.77610959 374.38478697 -122.27050781 358.3996582 C-122.61601685 357.41316284 -122.61601685 357.41316284 -122.96850586 356.40673828 C-127.91034341 341.09157569 -128.39604016 325.71651203 -128.34619141 309.77661133 C-128.35026602 307.56525922 -128.35561284 305.35390915 -128.36212158 303.14256287 C-128.37569521 297.18595488 -128.37053796 291.22950433 -128.36098433 285.27289391 C-128.35333578 279.0095213 -128.36044766 272.74616128 -128.36514282 266.48278809 C-128.37093294 255.29737724 -128.36166864 244.11202364 -128.34636481 232.9266265 C-128.33296476 222.820434 -128.33529383 212.71434494 -128.34912109 202.6081543 C-128.36523813 190.82317246 -128.37111859 179.03824089 -128.3622843 167.25324774 C-128.35763136 161.03278467 -128.35691696 154.81239258 -128.36689377 148.5919342 C-128.37562398 142.74109444 -128.36943193 136.89044808 -128.352211 131.03962898 C-128.34827828 128.90528241 -128.34932428 126.77091927 -128.35599899 124.63657951 C-128.40027592 109.02721401 -127.46690067 93.93792442 -122.20800781 79.0871582 C-121.95051758 78.34433594 -121.69302734 77.60151367 -121.42773438 76.83618164 C-111.16404079 48.11508952 -90.83176049 26.22219967 -63.95800781 12.2746582 C-63.05824219 11.80415039 -62.15847656 11.33364258 -61.23144531 10.84887695 C-55.86714017 8.23154982 -50.34286711 6.32497761 -44.64550781 4.5871582 C-43.99477295 4.38453369 -43.34403809 4.18190918 -42.67358398 3.97314453 C-28.64171581 -0.09930831 -14.46670717 -0.01912654 0 0 Z " fill="#2C75F3" transform="translate(735.9580078125,613.725341796875)"/>
<path d="M0 0 C2.18958204 -0.00435495 4.37916255 -0.0095407 6.56874084 -0.01548767 C12.48010626 -0.02880555 18.39140745 -0.02946434 24.30278492 -0.02692437 C29.2550551 -0.02584961 34.20731256 -0.03075096 39.15957999 -0.03552979 C51.51989857 -0.04723175 63.88018183 -0.04641424 76.2405028 -0.03997298 C87.59663722 -0.03448778 98.95265984 -0.04846543 110.30877614 -0.06858569 C120.66764798 -0.08625747 131.02648272 -0.09219423 141.38536906 -0.08894795 C147.55617255 -0.08714361 153.72689249 -0.08968578 159.89768219 -0.10366249 C165.70579486 -0.11632705 171.51372628 -0.11421585 177.32183647 -0.1012516 C179.43963879 -0.09890484 181.55745421 -0.10155131 183.67524147 -0.10987473 C199.47200499 -0.1674282 215.18863324 0.62682559 230.22949219 5.9621582 C230.96304932 6.21562012 231.69660645 6.46908203 232.45239258 6.73022461 C248.83294365 12.62602049 262.41807621 22.41384596 275.04199219 34.2746582 C275.63367188 34.7902832 276.22535156 35.3059082 276.83496094 35.8371582 C297.96919481 55.1139891 307.59903864 85.60841606 309.04199219 113.2746582 C309.22069481 119.96764924 309.18595628 126.66432241 309.18383789 133.35913086 C309.18687558 135.35975216 309.1903987 137.36037276 309.19436646 139.36099243 C309.20220948 143.64691874 309.20738291 147.9328369 309.21065712 152.21876907 C309.21661111 159.01325218 309.23319259 165.80768411 309.2519989 172.60214233 C309.25833504 174.93686101 309.26466068 177.27157971 309.27097607 179.60629845 C309.27414188 180.77497735 309.27730769 181.94365625 309.28056943 183.14774966 C309.32249516 198.94606571 309.35560812 214.74435658 309.36791992 230.54272461 C309.37633121 241.22684815 309.39893046 251.91084317 309.43727559 262.5949024 C309.45692437 268.23424514 309.46947803 273.87339629 309.4644413 279.51277542 C309.45975505 284.82357176 309.47381483 290.1340055 309.5014534 295.44472885 C309.50829741 297.37826599 309.50856631 299.31184117 309.50125313 301.24537659 C309.41087408 327.85661962 316.22884528 353.71195556 332.98046875 374.89233398 C333.45460835 375.49252413 333.92874794 376.09271427 334.4172554 376.711092 C339.92512912 383.54819701 346.08814495 389.67914534 352.33886719 395.8293457 C353.5850714 397.0673798 354.83051863 398.30617629 356.07525635 399.54568481 C359.31443793 402.76796452 362.56212049 405.98152331 365.81231689 409.19268799 C371.02772062 414.34827577 376.23003182 419.51706741 381.43180084 424.68640518 C383.23191151 426.47273047 385.03587292 428.25508904 386.84051514 430.03683472 C387.95691588 431.14320133 389.07323287 432.24965247 390.18945312 433.35620117 C390.6799968 433.83843643 391.17054047 434.32067169 391.6759491 434.81752014 C394.27260967 437.39793795 396.72530208 440.04520819 399.10319519 442.82891846 C404.40676264 448.94479742 410.20035596 454.59783921 415.9152832 460.32495117 C417.21396198 461.6299059 418.51245441 462.93504611 419.81077576 464.24035645 C424.05225537 468.50274129 428.29894591 472.75991512 432.54589844 477.0168457 C434.01509199 478.49009164 435.48425316 479.96336987 436.95338249 481.43667984 C443.85780736 488.3601253 450.76462066 495.28117709 457.67438465 502.19929397 C465.61889414 510.15356934 473.5550588 518.1160501 481.48421723 526.08562744 C487.63540286 532.2670779 493.79434458 538.4407325 499.95902961 544.60871994 C503.63078398 548.28281252 507.29923272 551.9600612 510.95947456 555.64562607 C514.40707292 559.11669293 517.8642972 562.57788783 521.32874489 566.03213501 C522.58901161 567.29191083 523.84594618 568.55503172 525.0990181 569.82196426 C535.66131532 580.4943982 546.81099244 589.99912217 560.66699219 596.1496582 C561.47765137 596.51913574 562.28831055 596.88861328 563.12353516 597.26928711 C581.70672627 605.60709121 599.5403567 607.7291834 619.68823242 607.65942383 C621.70092067 607.66353987 623.71360653 607.6690068 625.72628784 607.67570496 C630.02582508 607.6873406 634.32523428 607.68994655 638.62478447 607.68534851 C645.44035638 607.6784787 652.255763 607.69450901 659.07130432 607.71374512 C673.54069149 607.75143585 688.01006346 607.76437493 702.47949219 607.7746582 C718.10302934 607.78576362 733.72648889 607.80128732 749.34997326 607.84537077 C756.10810454 607.86359632 762.86604324 607.86766677 769.62419307 607.86043549 C773.84681626 607.85890096 778.06934523 607.86977627 782.2919426 607.88381386 C784.2307493 607.88777614 786.16957453 607.8867617 788.10837364 607.88004112 C824.30208228 607.76433962 855.0241505 618.59422368 881.04199219 644.2746582 C893.99175234 657.20153893 903.14672838 674.02747066 908.35449219 691.4621582 C908.59707764 692.24985596 908.83966309 693.03755371 909.08959961 693.84912109 C913.49145712 709.58159946 913.33744523 726.2981001 913.30078125 742.49926758 C913.30349956 744.55003482 913.30706515 746.60080109 913.31140137 748.65156555 C913.32042788 754.16189587 913.31702181 759.67215032 913.3106432 765.18248177 C913.30553224 770.98579213 913.31028866 776.78909657 913.31341553 782.59240723 C913.31704046 792.33269399 913.31229493 802.0729503 913.30273438 811.81323242 C913.2918527 823.02803473 913.29537932 834.24276428 913.30638719 845.45756483 C913.31550223 855.1363027 913.31672482 864.81501885 913.31150985 874.49375963 C913.30841323 880.25258099 913.30791657 886.0113683 913.31458282 891.77018738 C913.32041741 897.18765304 913.3162492 902.60502612 913.30479431 908.02248192 C913.30218007 909.99473607 913.30285635 911.9669982 913.30731964 913.93924904 C913.32698281 923.52138632 913.13619742 933.000734 912.15472412 942.53869629 C912.07777636 943.28799109 912.0008286 944.03728589 911.92154908 944.80928659 C908.39955322 975.50232751 891.07307655 1002.75684781 867.26464844 1021.89575195 C842.12322847 1040.8743726 813.24642868 1045.5997182 782.48950195 1045.53344727 C780.35564047 1045.53616289 778.22177993 1045.53972702 776.08792114 1045.54406738 C770.33376268 1045.55312619 764.57967654 1045.54967401 758.82551694 1045.54330921 C752.77787675 1045.53821467 746.73024239 1045.54295027 740.68260193 1045.54608154 C730.52919412 1045.54971145 720.37581548 1045.54494804 710.22241211 1045.53540039 C698.51798652 1045.52452068 686.81363064 1045.52804188 675.10920674 1045.5390532 C665.02465521 1045.54815745 654.94012456 1045.54939597 644.85557026 1045.54417586 C638.84806899 1045.541073 632.84060038 1045.54060014 626.83310127 1045.54724884 C621.18177817 1045.55306738 615.53054409 1045.54894368 609.8792305 1045.53746033 C607.81702891 1045.53483756 605.75481969 1045.53553751 603.69262123 1045.53998566 C566.68644132 1045.6123889 535.43710625 1036.43723286 508.47949219 1010.0871582 C502.4420509 1004.0181715 497.46782994 997.62690255 493.04199219 990.2746582 C492.66059082 989.6460791 492.27918945 989.0175 491.88623047 988.36987305 C479.07197494 966.83663953 475.73536644 944.50327056 475.77075195 919.80712891 C475.76635701 917.7654754 475.76105208 915.72382369 475.75491333 913.68217468 C475.74347072 909.30783813 475.73795814 904.93354965 475.73703194 900.55919838 C475.73507893 893.62635082 475.7169579 886.69360155 475.6962738 879.76078796 C475.64725106 862.54084987 475.61625289 845.32088524 475.5949707 828.10089111 C475.57839936 814.71269927 475.55545282 801.32459242 475.51194996 787.93645734 C475.49031309 781.06126254 475.48210263 774.18622978 475.48434269 767.31100333 C475.48266221 763.01298368 475.46853017 758.71506766 475.45112991 754.41708565 C475.44558579 752.44281018 475.44499321 750.46851272 475.45006752 748.49423599 C475.54319195 707.97579733 461.06823708 678.41385458 432.7736702 649.91389847 C429.55296354 646.6858999 426.32435465 643.46593141 423.09204865 640.24954987 C420.44041124 637.61084404 417.7920577 634.96887984 415.14447021 632.32611084 C409.5298064 626.7227868 403.91121488 621.12340948 398.29199219 615.5246582 C391.76029339 609.01671244 385.23033789 602.50703253 378.7045517 595.99315643 C376.10597302 593.40101917 373.50438297 590.81193105 370.90264893 588.22296143 C369.30083595 586.62478286 367.69916427 585.02646267 366.09765625 583.42797852 C365.38269485 582.71818344 364.66773346 582.00838837 363.93110657 581.27708435 C360.7266805 578.07299281 357.61948329 574.8372154 354.66325378 571.40187073 C350.35071395 566.40632211 345.70004545 561.76155915 341.04614258 557.0859375 C340.05613525 556.08800807 339.06630263 555.08990529 338.07662964 554.09164429 C334.85133302 550.84037155 331.62080886 547.59432069 328.38964844 544.34887695 C327.26846878 543.22232761 326.14729304 542.09577436 325.02612114 540.9692173 C320.35543292 536.27693638 315.68331387 531.58608783 311.00747013 526.8989439 C304.35312265 520.22839665 297.70738349 513.54953427 291.07353026 506.85860318 C286.38228073 502.12839963 281.68124681 497.40805806 276.97311014 492.69466335 C274.17409723 489.89203176 271.37925424 487.08554468 268.59489632 484.26834679 C254.70294724 470.22050927 240.97816434 456.69470077 222.72949219 448.3996582 C221.95387939 448.0387207 221.1782666 447.6777832 220.37915039 447.3059082 C207.64377577 441.61675019 193.60664023 438.12288735 179.65226746 438.12989807 C178.82200729 438.12637123 177.99174713 438.12284438 177.13632756 438.11921066 C174.36163128 438.10855931 171.58696937 438.10484878 168.81225586 438.10107422 C166.81927344 438.0947658 164.82629243 438.08799967 162.83331299 438.08081055 C158.54289735 438.0661549 154.25248709 438.05442393 149.96205711 438.04486275 C143.16448313 438.0293756 136.36695523 438.00542323 129.56941223 437.97996521 C110.23974529 437.9088652 90.91005156 437.84914151 71.58032227 437.79785156 C60.90326054 437.7694458 50.2262443 437.73400582 39.5492304 437.69119781 C32.80677195 437.66458359 26.06436492 437.64658109 19.32186449 437.63516057 C15.10366299 437.62596013 10.88552326 437.60856345 6.6673584 437.58898163 C4.72814734 437.58157987 2.78892034 437.57742959 0.84969521 437.57698631 C-36.92575315 437.56139509 -68.63800908 428.212464 -96.08300781 401.5246582 C-108.04679676 389.51305236 -116.77610959 374.38478697 -122.27050781 358.3996582 C-122.61601685 357.41316284 -122.61601685 357.41316284 -122.96850586 356.40673828 C-127.91034341 341.09157569 -128.39604016 325.71651203 -128.34619141 309.77661133 C-128.35026602 307.56525922 -128.35561284 305.35390915 -128.36212158 303.14256287 C-128.37569521 297.18595488 -128.37053796 291.22950433 -128.36098433 285.27289391 C-128.35333578 279.0095213 -128.36044766 272.74616128 -128.36514282 266.48278809 C-128.37093294 255.29737724 -128.36166864 244.11202364 -128.34636481 232.9266265 C-128.33296476 222.820434 -128.33529383 212.71434494 -128.34912109 202.6081543 C-128.36523813 190.82317246 -128.37111859 179.03824089 -128.3622843 167.25324774 C-128.35763136 161.03278467 -128.35691696 154.81239258 -128.36689377 148.5919342 C-128.37562398 142.74109444 -128.36943193 136.89044808 -128.352211 131.03962898 C-128.34827828 128.90528241 -128.34932428 126.77091927 -128.35599899 124.63657951 C-128.40027592 109.02721401 -127.46690067 93.93792442 -122.20800781 79.0871582 C-121.95051758 78.34433594 -121.69302734 77.60151367 -121.42773438 76.83618164 C-111.16404079 48.11508952 -90.83176049 26.22219967 -63.95800781 12.2746582 C-63.05824219 11.80415039 -62.15847656 11.33364258 -61.23144531 10.84887695 C-55.86714017 8.23154982 -50.34286711 6.32497761 -44.64550781 4.5871582 C-43.99477295 4.38453369 -43.34403809 4.18190918 -42.67358398 3.97314453 C-28.64171581 -0.09930831 -14.46670717 -0.01912654 0 0 Z " fill="#4259F5" transform="translate(131.9580078125,613.725341796875)"/>
<path d="M0 0 C2.22164755 -0.00379401 4.44329271 -0.00930289 6.66493225 -0.01637268 C12.63587619 -0.03020095 18.60652791 -0.01924823 24.57745528 -0.00266147 C30.86082735 0.01130879 37.14418449 0.00471564 43.42756653 0.00120544 C53.97063315 -0.00148669 64.5136047 0.01180517 75.05664062 0.03515625 C85.86234785 0.05908576 96.66790383 0.06615003 107.47363281 0.05566406 C120.56175994 0.04298563 133.64981175 0.04558898 146.73793983 0.06132317 C151.71157786 0.067048 156.68516525 0.06702813 161.65880394 0.06225777 C167.52364723 0.05745058 173.38828392 0.06774319 179.253088 0.08921242 C181.39227095 0.09472906 183.53147397 0.09529338 185.67065811 0.09025955 C201.19229558 0.05834164 216.2780487 0.97066755 231.06958008 6.12670898 C232.17112427 6.50520996 232.17112427 6.50520996 233.29492188 6.89135742 C261.74475729 17.11081779 284.99585724 38.15612793 298.29980469 65.24780273 C308.52055622 87.11374584 310.21890543 108.75964975 310.21142578 132.56445312 C310.21446277 134.57477901 310.21798571 136.58510421 310.22195435 138.59542847 C310.22980311 142.90538164 310.23497303 147.2153267 310.23824501 151.52528572 C310.24419459 158.35749418 310.2607724 165.18965164 310.27958679 172.02183533 C310.28592313 174.36877915 310.29224877 176.71572301 310.29856396 179.06266689 C310.30172977 180.23756046 310.30489558 181.41245403 310.30815732 182.62295043 C310.35009328 198.51115723 310.38319258 214.39933916 310.39550781 230.28759766 C310.40391891 241.02921233 310.42651859 251.77069917 310.46486348 262.51224989 C310.48451502 268.1829064 310.49706504 273.85337231 310.49202919 279.52406502 C310.48734315 284.86521599 310.50140163 290.20600641 310.52904129 295.54708481 C310.535886 297.49190906 310.53615342 299.43677115 310.52884102 301.3815937 C310.40998829 336.58461242 323.34281884 365.84725657 348.00024414 390.75708008 C351.01545089 393.77646996 354.04945894 396.77643049 357.08520508 399.77514648 C358.71254901 401.39433035 360.33914219 403.01426905 361.96502686 404.63491821 C366.21035114 408.86327658 370.46419211 413.08295292 374.72045898 417.30029297 C381.54656322 424.06676657 388.35969928 430.84629231 395.17229462 437.62636185 C397.53748719 439.97770795 399.90651319 442.3251348 402.27618408 444.67196655 C403.73637362 446.12212595 405.19648128 447.5723678 406.65649414 449.02270508 C407.63075348 449.9845018 407.63075348 449.9845018 408.62469482 450.96572876 C411.64432822 453.97085703 414.55111759 457.01581015 417.32485962 460.25004578 C422.08423024 465.75710717 427.26076886 470.85730109 432.39819336 476.00732422 C433.531008 477.14641713 434.6636373 478.28569439 435.7960968 479.42514038 C439.49048203 483.14040081 443.19005006 486.85047828 446.88989258 490.56030273 C448.17089839 491.84536186 449.45187227 493.13045281 450.73281479 494.41557503 C456.75250944 500.4542825 462.77458705 506.49060102 468.79961503 512.52398723 C475.72309921 519.45723883 482.63822547 526.39868843 489.54636014 533.34723324 C494.90857253 538.73971957 500.27854681 544.12439841 505.65426624 549.50341946 C508.85482996 552.70632005 512.05208519 555.91235751 515.2411232 559.12673759 C518.24467562 562.15377529 521.25785587 565.17090293 524.278265 568.18111801 C525.37608388 569.27844642 526.47057829 570.3791142 527.56119347 571.48360252 C541.03357843 585.11751981 556.74413949 595.5583652 574.94458008 601.81420898 C575.60224365 602.04454834 576.25990723 602.2748877 576.9375 602.51220703 C591.63335402 607.25420848 606.41518167 607.93945122 621.71582031 607.88647461 C623.72850856 607.89059066 625.74119442 607.89605758 627.75387573 607.90275574 C632.05341298 607.91439138 636.35282217 607.91699733 640.65237236 607.91239929 C647.46794427 607.90552948 654.28335089 607.92155979 661.09889221 607.9407959 C675.56827938 607.97848663 690.03765136 607.99142572 704.50708008 608.00170898 C720.13061723 608.0128144 735.75407678 608.0283381 751.37756115 608.07242155 C758.13569243 608.09064711 764.89363113 608.09471755 771.65178096 608.08748627 C775.87440415 608.08595174 780.09693312 608.09682705 784.31953049 608.11086464 C786.25833719 608.11482692 788.19716242 608.11381248 790.13596153 608.1070919 C805.42504675 608.05821683 820.71218424 609.02980569 835.25708008 614.18920898 C835.99063721 614.4426709 836.72419434 614.69613281 837.47998047 614.95727539 C853.86053154 620.85307127 867.4456641 630.64089674 880.06958008 642.50170898 C880.66125977 643.01733398 881.25293945 643.53295898 881.86254883 644.06420898 C902.99234282 663.3369902 912.63506592 693.83834024 914.06958008 721.50170898 C914.251073 728.34767157 914.21685434 735.19736764 914.21484375 742.04516602 C914.21784122 744.09504761 914.22124509 746.14492865 914.22502136 748.19480896 C914.2338063 753.73026534 914.23619716 759.26570624 914.23683715 764.80116892 C914.23755085 768.26934244 914.23969122 771.7375121 914.24233437 775.20568466 C914.25156998 787.33300779 914.25567154 799.46031996 914.25488281 811.58764648 C914.25428269 822.84662571 914.26482626 834.10555692 914.28062648 845.36452401 C914.29375362 855.0686144 914.29906454 864.77268921 914.2984274 874.4767884 C914.29817391 880.25582501 914.30094221 886.03481892 914.31160545 891.81384659 C914.32137384 897.25584842 914.3213065 902.69776746 914.31408882 908.13977242 C914.31305371 910.12169963 914.31534088 912.10363224 914.32144928 914.08555031 C914.34912166 923.69695293 914.16829835 933.20447961 913.18330383 942.771698 C913.06779247 943.89510186 913.06779247 943.89510186 912.94994754 945.04120076 C909.62863948 973.93591874 893.81105043 1001.26387485 871.30932617 1019.55639648 C857.35386019 1030.42705883 841.62296319 1038.13147351 824.44458008 1042.31420898 C823.59822998 1042.52134521 822.75187988 1042.72848145 821.87988281 1042.94189453 C808.52641181 1045.99143612 794.94607897 1045.65089756 781.33251953 1045.64697266 C779.24998413 1045.64996934 777.16744929 1045.65337303 775.08491516 1045.65715027 C769.45656166 1045.66594284 763.82822338 1045.66832638 758.19986367 1045.66896605 C754.67526039 1045.66967927 751.15066091 1045.67181873 747.62605858 1045.67446327 C735.30653006 1045.68370112 722.98701233 1045.68780013 710.66748047 1045.68701172 C699.2215984 1045.6864114 687.77576354 1045.69695819 676.32989341 1045.71275538 C666.471291 1045.72587232 656.61270393 1045.73119387 646.75409287 1045.73055631 C640.88009013 1045.73030254 635.00612937 1045.73308668 629.13213539 1045.74373436 C623.60233043 1045.75348549 618.072607 1045.7534469 612.542799 1045.74621773 C610.52616887 1045.74518054 608.50953347 1045.74748257 606.49291229 1045.75357819 C568.4785759 1045.86094012 536.57967953 1036.62437072 508.94458008 1009.75170898 C496.98079113 997.74010314 488.2514783 982.61183775 482.75708008 966.62670898 C482.52674072 965.96904541 482.29640137 965.31138184 482.05908203 964.63378906 C477.28706414 949.84491161 476.63230446 934.97655841 476.68481445 919.58007812 C476.68069863 917.53783365 476.67523184 915.49559152 476.66853333 913.45335388 C476.65689579 909.08997443 476.65429243 904.72672115 476.65888977 900.36332893 C476.6657582 893.44694313 476.64973159 886.53072027 476.63049316 879.61436462 C476.59279867 864.93098807 476.57986273 850.24762649 476.56958008 835.56420898 C476.55847542 819.70970542 476.54295608 803.85527832 476.49886751 788.00082678 C476.48063885 781.14234168 476.47657266 774.28404635 476.4838028 767.42554295 C476.48533702 763.14064349 476.47446384 758.85583691 476.46042442 754.57096291 C476.4564612 752.60313012 476.45747825 750.63527908 476.46419716 748.66745377 C476.51259971 733.29605177 475.57006576 717.93968157 470.38208008 703.31420898 C470.12861816 702.58065186 469.87515625 701.84709473 469.61401367 701.09130859 C461.2142092 677.75375946 444.51157713 660.75967948 427.26796722 643.62493134 C425.18757828 641.55754389 423.1105383 639.48684021 421.03424072 637.41534424 C416.63219837 633.02460636 412.22619163 628.6378605 407.81958008 624.25170898 C402.69219744 619.14805002 397.56651998 614.04270136 392.44504547 608.9331131 C390.41153391 606.90602052 388.3750067 604.88199274 386.33831787 602.85809326 C385.08029503 601.60370604 383.82241411 600.34917646 382.56469727 599.09448242 C382.00869843 598.5436499 381.45269958 597.99281738 380.87985229 597.42529297 C378.0998324 594.6456413 375.44630776 591.81039026 372.88789368 588.82498169 C368.01989375 583.20558019 362.72926106 577.99694008 357.48144531 572.73657227 C356.32069673 571.5695458 355.16013366 570.4023348 353.9997406 569.23495483 C350.21276866 565.42710029 346.42060744 561.62443518 342.62817383 557.82202148 C341.31499674 556.50479114 340.00185162 555.18752893 338.68873787 553.87023544 C332.51687086 547.67935265 326.34261856 541.49086099 320.16541618 535.30530179 C313.06874933 528.19887147 305.98043476 521.08424508 298.89912647 513.96251118 C293.40187473 508.43497151 287.89684724 502.91525207 282.38608128 497.40118587 C279.10556127 494.11833025 275.82833986 490.83234359 272.55935478 487.5379982 C269.47948024 484.43461417 266.38994543 481.34116562 263.29320717 478.25461197 C262.16839525 477.13028997 261.04689921 476.00263743 259.9292984 474.87114716 C234.19261268 448.83301448 203.11014324 437.59419534 166.81825256 437.36367798 C163.27058858 437.34875535 159.72298417 437.34590747 156.17529297 437.34399414 C154.20744211 437.33931518 152.23959231 437.33416987 150.27174377 437.32859802 C146.06058417 437.31739442 141.84943132 437.30892356 137.6382618 437.30247879 C130.96661438 437.29171497 124.29501615 437.27145032 117.62339783 437.24935913 C98.66090138 437.18770894 79.69840934 437.13343664 60.73583984 437.1003418 C50.24257114 437.08194899 39.74938655 437.05296218 29.25617975 437.01233709 C23.71649649 436.99135999 18.17691873 436.97582291 12.63719368 436.97352982 C7.42575979 436.97136956 2.21454618 436.95536084 -2.99682045 436.92914009 C-4.89817461 436.92200021 -6.79955562 436.91982001 -8.7009201 436.92324257 C-43.595643 436.97597918 -71.57909014 424.46767101 -96.42260742 400.05249023 C-120.48809292 374.97490487 -127.2494212 343.14653639 -127.20507812 309.4519043 C-127.20943302 307.25247018 -127.21461875 305.05303757 -127.2205658 302.85360718 C-127.23388427 296.9153832 -127.2345424 290.97722315 -127.2320025 285.03898716 C-127.23092778 280.06434905 -127.23582898 275.0897236 -127.24060792 270.11508822 C-127.2523101 257.69901227 -127.25149225 245.28296762 -127.24505111 232.8668898 C-127.2398865 222.12607027 -127.25113115 211.38534156 -127.27014933 200.64453998 C-127.28960182 189.57213902 -127.29748046 178.49978295 -127.29402608 167.42736506 C-127.29222167 161.22861605 -127.29476461 155.0299502 -127.30874062 148.8312149 C-127.32140444 142.99683768 -127.31929465 137.1626409 -127.30632973 131.32826614 C-127.3039828 129.20078849 -127.30663002 127.07329779 -127.31495285 124.94583511 C-127.44153915 90.04062208 -117.81297232 58.95269693 -93.09448242 33.51342773 C-82.55024008 23.19070309 -70.47813597 15.25586545 -56.93041992 9.50170898 C-55.80506836 9.02217773 -54.6797168 8.54264648 -53.52026367 8.04858398 C-36.12212843 1.29281685 -18.49042028 -0.09139075 0 0 Z " fill="#4358F5" transform="translate(734.930419921875,5.498291015625)"/>
<path d="M0 0 C1.24088096 -0.00297112 2.48176191 -0.00594224 3.76024532 -0.0090034 C7.19296606 -0.01616225 10.62563672 -0.01886105 14.05836129 -0.01960087 C17.76545025 -0.02145748 21.47252849 -0.02900792 25.17961121 -0.03573608 C33.28118365 -0.04929624 41.38275113 -0.05534072 49.48433304 -0.05974674 C54.54814 -0.06251351 59.61194506 -0.0667517 64.67575073 -0.07125092 C78.71019877 -0.08344136 92.74464529 -0.09374059 106.77909851 -0.09712601 C107.67670066 -0.09734557 108.57430282 -0.09756514 109.49910504 -0.09779136 C110.39879558 -0.09800964 111.29848613 -0.09822791 112.22544003 -0.09845281 C114.04840533 -0.09889626 115.87137063 -0.09934283 117.69433594 -0.09979248 C119.05070244 -0.10012463 119.05070244 -0.10012463 120.4344703 -0.10046348 C135.07383052 -0.10440825 149.71314087 -0.12185348 164.35248184 -0.145152 C179.401153 -0.16890757 194.44979918 -0.1813298 209.49848938 -0.18249393 C217.94016233 -0.18340841 226.38177031 -0.1891033 234.82342529 -0.20731354 C242.01431866 -0.22277149 249.20512698 -0.22780164 256.39603382 -0.21957543 C260.05968693 -0.21568876 263.72316908 -0.21650042 267.38680077 -0.23063278 C295.12124584 -0.33151194 316.92095101 1.98785028 337.93017578 21.95294189 C354.34504003 38.96612925 358.84554614 59.69092476 358.81388855 82.52404785 C358.81615411 83.73552923 358.81841966 84.94701061 358.82075387 86.19520354 C358.8259617 89.53186684 358.82674347 92.86847594 358.8255595 96.2051394 C358.82535438 99.8139943 358.83088478 103.42284133 358.83561707 107.0316925 C358.84390009 114.09230151 358.84667084 121.15290215 358.84722944 128.21351561 C358.8477057 133.95638862 358.84976592 139.6992589 358.85293007 145.44213104 C358.86173008 161.7473776 358.86635044 178.0526176 358.8655996 194.35786656 C358.86553966 195.67457484 358.86553966 195.67457484 358.86547852 197.0178833 C358.86543763 197.89676853 358.86539675 198.77565375 358.86535463 199.68117186 C358.86494831 213.92008062 358.87451624 228.15896291 358.88861688 242.39786401 C358.90300263 257.04095077 358.90988586 271.68402464 358.90902311 286.32711864 C358.90869191 294.53898535 358.91140521 302.75082431 358.92220116 310.96268463 C358.93133511 317.95479625 358.93345771 324.94686755 358.92669173 331.93898258 C358.92344114 335.50123343 358.92331656 339.06340704 358.93204498 342.62565041 C358.94144016 346.50010253 358.93509595 350.37444365 358.92741394 354.24890137 C358.9325575 355.35691203 358.93770107 356.4649227 358.9430005 357.60650945 C358.8475197 379.53705197 353.14550834 399.56881314 337.48876953 415.42169189 C320.72811617 431.64619084 301.36315223 437.29835428 278.36071777 437.28088379 C277.13193861 437.28385491 275.90315946 437.28682603 274.63714457 437.28988719 C271.24281834 437.2970379 267.84854275 437.29974419 264.45421267 437.30048466 C260.78665895 437.30234325 257.11911602 437.30989465 253.4515686 437.31661987 C245.43882839 437.33017171 237.4260932 437.33622314 229.41334343 437.34063053 C224.40396393 437.34339858 219.39458634 437.34763698 214.38520813 437.3521347 C200.49826936 437.36432381 186.61133212 437.37462347 172.72438812 437.3780098 C171.83647549 437.37822936 170.94856285 437.37844893 170.03374377 437.37867515 C168.69880055 437.37900256 168.69880055 437.37900256 167.33688879 437.3793366 C165.53367456 437.37978005 163.73046033 437.38022661 161.92724609 437.38067627 C161.03280141 437.3808977 160.13835673 437.38111913 159.21680766 437.38134727 C144.73661622 437.38529192 130.25647521 437.40273738 115.77630323 437.42603579 C100.88692732 437.44979793 85.99757665 437.46221387 71.10818148 437.46337771 C62.75759412 437.4642918 54.40707246 437.46997669 46.0565033 437.48819733 C38.94324984 437.50366417 31.83008239 437.50868024 24.71681529 437.50045922 C21.09353593 437.49657572 17.47042942 437.49736834 13.84717178 437.51151657 C-11.19410881 437.60345701 -32.04493979 436.46653541 -52.31982422 420.14044189 C-52.95275391 419.67122314 -53.58568359 419.20200439 -54.23779297 418.71856689 C-67.99544726 408.01467111 -75.9810843 390.09366548 -78.31982422 373.14044189 C-79.01199591 363.91323495 -78.87615719 354.64189351 -78.84272289 345.39415288 C-78.83358182 341.6462797 -78.84768647 337.89847795 -78.85864258 334.15061951 C-78.87633685 326.82942261 -78.87262868 319.50839065 -78.86099201 312.18718755 C-78.8519219 306.2318388 -78.85074908 300.27653595 -78.85508728 294.32118225 C-78.85570021 293.47038303 -78.85631314 292.61958381 -78.85694465 291.7430028 C-78.85822368 290.01408603 -78.85952054 288.28516928 -78.86083502 286.55625254 C-78.87221418 270.3818355 -78.85916907 254.20750945 -78.83763355 238.03310734 C-78.81976499 224.18456265 -78.82286985 210.33615213 -78.84130859 196.48760986 C-78.86276254 180.36715602 -78.87111579 164.24678173 -78.85885954 148.12631559 C-78.85758548 146.40411092 -78.85632799 144.68190624 -78.85508728 142.95970154 C-78.85447018 142.11256266 -78.85385308 141.26542379 -78.85321727 140.39261404 C-78.84977792 134.45126269 -78.85556204 128.50996223 -78.86500549 122.56861877 C-78.87627731 115.31827742 -78.87307737 108.06810907 -78.85188252 100.81778729 C-78.84144124 97.1255614 -78.83713026 93.43362289 -78.85047913 89.74139977 C-78.96437464 55.40208805 -78.96437464 55.40208805 -70.63232422 39.82794189 C-70.28983643 39.17043945 -69.94734863 38.51293701 -69.59448242 37.83551025 C-60.33888988 20.68722739 -45.27072102 9.37778635 -27.09716797 3.01153564 C-18.02049422 0.42711822 -9.39087388 -0.00703823 0 0 Z " fill="#425AF5" transform="translate(82.31982421875,1221.8595581054688)"/>
<path d="M0 0 C1.07844834 -0.00445784 2.15689668 -0.00891569 3.26802528 -0.01350862 C5.02889337 -0.01323207 5.02889337 -0.01323207 6.82533455 -0.01294994 C8.70881731 -0.01846498 8.70881731 -0.01846498 10.63035023 -0.02409142 C14.10899224 -0.03407634 17.587617 -0.03782255 21.06627131 -0.04048073 C24.82111558 -0.04439432 28.57594633 -0.05397199 32.33078194 -0.0626936 C41.39628797 -0.08242977 50.46179508 -0.09252125 59.52731723 -0.10142139 C63.80192079 -0.10580953 68.07652312 -0.11117503 72.35112572 -0.11641026 C86.57082232 -0.13342078 100.79051817 -0.14791292 115.01022339 -0.155159 C118.69795292 -0.15706873 122.38568244 -0.15898909 126.07341194 -0.16094494 C126.98992193 -0.16142868 127.90643192 -0.16191242 128.85071494 -0.16241082 C143.68347462 -0.17070359 158.51615347 -0.19602856 173.34887789 -0.22852562 C188.59527402 -0.26165517 203.84162915 -0.27961313 219.08806145 -0.28280324 C227.64102832 -0.28496304 236.19387734 -0.29363357 244.74680901 -0.31926441 C252.03396558 -0.34105224 259.32097568 -0.34898238 266.60816114 -0.33929763 C270.32058805 -0.33477599 274.03271327 -0.33651298 277.74509811 -0.35605907 C312.18520195 -0.5274089 312.18520195 -0.5274089 327.7931385 7.82172108 C328.44991585 8.16348377 329.10669319 8.50524647 329.78337288 8.85736561 C346.90406117 18.09132432 357.70183456 33.02295585 364.4025135 50.95843983 C368.63485909 65.75323299 367.77078378 81.46311968 367.74208784 96.68004465 C367.73751888 100.27111105 367.7445689 103.86215877 367.75004768 107.45322132 C367.75889639 114.46870825 367.75703997 121.48415215 367.7512224 128.4996407 C367.746688 134.206156 367.74610066 139.91265932 367.74827003 145.61917591 C367.7485765 146.43431965 367.74888297 147.24946338 367.74919872 148.08930844 C367.74983823 149.74575146 367.75048666 151.40219448 367.7511439 153.0586375 C367.75683395 168.55628255 367.75031017 184.05390387 367.73954317 199.55154502 C367.73060887 212.82162861 367.73216129 226.09167719 367.74138069 239.36176014 C367.75210681 254.80757726 367.75628475 270.25337363 367.75015616 285.69919395 C367.74951913 287.34921805 367.74889039 288.99924214 367.74827003 290.64926624 C367.74796148 291.46090738 367.74765293 292.27254853 367.74733503 293.10878485 C367.74561511 298.80211368 367.74850797 304.49542922 367.75322914 310.18875599 C367.75886407 317.13607293 367.75726698 324.08334474 367.74666765 331.03065658 C367.74144587 334.56875988 367.73929384 338.10678819 367.74596596 341.64489079 C367.79434648 369.76658359 366.40380674 395.0293411 345.49235725 416.31000233 C330.93172325 430.37463045 313.43196487 436.45345231 293.54066658 436.40164661 C291.61552859 436.40844328 291.61552859 436.40844328 289.65149891 436.41537726 C286.10927032 436.42755078 282.56713657 436.4273535 279.02489185 436.42498851 C275.19649188 436.4245789 271.36812172 436.43563329 267.53973579 436.44510365 C260.04617657 436.46168423 252.55264882 436.46721188 245.05907278 436.4683284 C238.96387365 436.46928039 232.86868486 436.47339824 226.773489 436.47972965 C209.47132058 436.49733503 192.16917693 436.50656977 174.86699949 436.5050687 C173.93512537 436.50498879 173.00325124 436.50490888 172.0431385 436.50482655 C170.64360928 436.5047039 170.64360928 436.5047039 169.21580674 436.50457878 C154.10449739 436.50376637 138.99328784 436.52289462 123.88200735 436.55110328 C108.3451024 436.57987625 92.80824604 436.59364111 77.27131379 436.59191573 C68.55690553 436.59125329 59.84260186 436.59668122 51.1282177 436.61827183 C43.70678413 436.63654193 36.28550255 436.64078345 28.86405616 436.62725298 C25.08288138 436.62075221 21.30199767 436.62050026 17.52085114 436.63795948 C-6.61490074 436.74249848 -28.07925603 435.1815673 -46.2537365 417.45843983 C-47.00139275 416.69144764 -47.749049 415.92445545 -48.5193615 415.13422108 C-49.28764275 414.39816639 -50.055924 413.6621117 -50.8474865 412.90375233 C-65.15508965 398.37715525 -69.66965557 379.47293403 -69.66653252 359.71396351 C-69.6702092 358.46224303 -69.67388589 357.21052254 -69.677674 355.92087114 C-69.68764575 352.45782065 -69.69140297 348.99478749 -69.69406331 345.53172469 C-69.69798079 341.79187558 -69.70755812 338.05204001 -69.71627617 334.31219959 C-69.73600058 325.28566761 -69.74610197 316.25913458 -69.75500396 307.23258644 C-69.75939372 302.97504928 -69.76475876 298.71751334 -69.76999283 294.45997715 C-69.78700158 280.29514353 -69.80149367 266.13031067 -69.80874157 251.96546841 C-69.81065126 248.2930409 -69.81257162 244.6206134 -69.81452751 240.94818592 C-69.81501125 240.03549436 -69.81549499 239.1228028 -69.81599339 238.18245392 C-69.82428599 223.41186521 -69.84961146 208.64135768 -69.88210819 193.87080438 C-69.91524597 178.68426242 -69.93319641 163.49776162 -69.93638581 148.31118333 C-69.93854477 139.79341078 -69.94720291 131.27575661 -69.97284698 122.75801945 C-69.99464606 115.50092573 -70.00255948 108.24397916 -69.9928802 100.98685642 C-69.98836189 97.29050026 -69.99007579 93.59444709 -70.00964165 89.89813328 C-70.14778125 62.22411306 -67.31093573 40.36473217 -47.1443615 19.70062733 C-34.53662695 7.71923857 -17.58028816 0.0338935 0 0 Z " fill="#4457F5" transform="translate(1281.5193614959717,5.865778923034668)"/>
<path d="M0 0 C13.87348791 -0.30474358 27.7464514 -0.53256727 41.62260818 -0.67355824 C48.06697342 -0.74124877 54.509082 -0.83296714 60.95214844 -0.98071289 C67.17692782 -1.12255069 73.39954511 -1.19981293 79.62581635 -1.23340416 C81.99425028 -1.25732287 84.36257306 -1.30403554 86.73007965 -1.37449074 C106.24650037 -1.93188937 106.24650037 -1.93188937 112.07629395 2.83779907 C115.20107928 5.93405213 117.58818618 9.33160841 120 13 C121.16320428 14.37509251 122.34395488 15.73620011 123.5625 17.0625 C124.08972656 17.67222656 124.61695312 18.28195313 125.16015625 18.91015625 C127.56670156 21.64370559 130.03303196 24.32114006 132.5 27 C136.10015323 30.90979181 139.64417664 34.85866536 143.125 38.875 C145.54550075 41.61823418 148.02200642 44.30884568 150.5 47 C154.10012756 50.90981595 157.64417605 54.85866468 161.125 58.875 C163.54550075 61.61823418 166.02200642 64.30884568 168.5 67 C171.53888018 70.30028923 174.56156045 73.60949283 177.5 77 C180.86238769 80.87720303 184.32549179 84.659551 187.81030273 88.42651367 C190.03480065 90.83508698 192.22028806 93.25682007 194.35546875 95.74609375 C202.94715437 105.7367795 211.94697011 111.79897492 225 114 C227.43734171 114.09201078 229.87697862 114.12894262 232.3160553 114.13130188 C233.40619711 114.13447545 233.40619711 114.13447545 234.51836199 114.13771313 C236.94853587 114.1436944 239.37865755 114.14271431 241.80883789 114.1418457 C243.55363045 114.14487854 245.29842222 114.14840034 247.04321289 114.15237427 C250.79945526 114.16025566 254.55568817 114.1654054 258.31193733 114.16866493 C264.25953689 114.17458562 270.20707694 114.19113724 276.15464783 114.21000671 C278.19301316 114.21634403 280.23137852 114.22266965 282.26974392 114.22898388 C283.29055612 114.23214969 284.31136833 114.2353155 285.36311424 114.23857725 C299.20617688 114.28060217 313.04921181 114.31361168 326.89233398 114.32592773 C336.23409334 114.33432428 345.5757052 114.35687479 354.91739076 114.3952834 C359.85631846 114.41499193 364.79502592 114.42746598 369.73399544 114.42244911 C374.38560259 114.41778171 379.03679311 114.43172168 383.68831635 114.45946121 C385.38773926 114.46633818 387.08720557 114.46653753 388.78662682 114.45926094 C402.47800415 114.40659585 413.99759892 116.25341036 425 125 C425.61488281 125.47824219 426.22976563 125.95648438 426.86328125 126.44921875 C436.30076794 134.75671812 440.32094897 147.39734384 441.18340731 159.59361553 C441.25451166 162.22242631 441.26691757 164.8442695 441.25396729 167.47399902 C441.25708727 168.4679397 441.26020725 169.46188037 441.26342177 170.48594046 C441.27133739 173.78430884 441.26510338 177.08248994 441.25878906 180.38085938 C441.26150178 182.75869351 441.26506429 185.13652681 441.26940918 187.51435852 C441.27850196 193.95021195 441.27500174 200.38600103 441.26865101 206.82185555 C441.26508616 210.84642403 441.26576947 214.87098435 441.26763153 218.89555359 C441.267938 219.56530003 441.26824446 220.23504647 441.26856022 220.92508826 C441.26919972 222.28599934 441.26984814 223.64691042 441.2705054 225.0078215 C441.27619775 237.74554985 441.26966802 250.48324934 441.25890467 263.22097296 C441.24997015 274.13186751 441.2515225 285.04271949 441.26074219 295.95361328 C441.2714642 308.64821335 441.27564853 321.34278817 441.26951766 334.03739214 C441.26888061 335.39307689 441.26825187 336.74876165 441.26763153 338.10444641 C441.26732298 338.77133251 441.26701443 339.4382186 441.26669653 340.12531337 C441.26497537 344.80707585 441.2679708 349.48881737 441.27259064 354.170578 C441.27838295 360.48091222 441.27433265 366.79116633 441.26280212 373.10149193 C441.26016563 375.41251175 441.2609033 377.72353835 441.26532745 380.03455544 C441.2708243 383.19846056 441.26389874 386.36211185 441.25396729 389.52600098 C441.25842873 390.43195684 441.26289017 391.3379127 441.26748681 392.27132177 C441.18491383 405.9121128 438.09434663 418.34557338 428.625 428.5625 C418.17535414 438.26574258 408.78979483 442.31303309 394.4755249 442.26742554 C392.90398584 442.27422221 392.90398584 442.27422221 391.30069852 442.28115618 C387.79644926 442.29379791 384.29235546 442.29217993 380.78808594 442.29052734 C378.27291158 442.29651274 375.75773907 442.30331831 373.24256897 442.31088257 C367.12302457 442.32671449 361.00353694 442.33299093 354.88397399 442.33410732 C349.90711286 442.3350591 344.9302644 442.33917584 339.95340729 442.34550858 C325.82873539 442.36311427 311.70409383 442.37234856 297.57941088 442.37084763 C296.8186008 442.37076772 296.05779072 442.3706878 295.27392578 442.37060547 C294.13130967 442.37048283 294.13130967 442.37048283 292.96561041 442.37035771 C280.6256019 442.36954512 268.28571553 442.38867755 255.94574234 442.4168822 C243.26106972 442.44564485 230.57645661 442.45942062 217.89175057 442.45769465 C210.7759232 442.45703189 203.66022388 442.46247407 196.54442596 442.48405075 C189.84995602 442.50422049 183.15580073 442.50355441 176.4613018 442.48901749 C174.00837496 442.48692881 171.5554312 442.49163368 169.10253334 442.5037384 C165.74551007 442.51922799 162.38941371 442.50985719 159.03240967 442.49447632 C158.06925205 442.50476344 157.10609443 442.51505057 156.11375022 442.52564943 C144.50982224 442.40872769 134.26028527 437.89802645 125.83984375 429.96484375 C116.73152163 420.3117248 112.67376557 409.44615742 112.74171448 396.29142761 C112.73803877 395.45114165 112.73436307 394.61085569 112.73057598 393.74510652 C112.72065066 390.94874174 112.72473587 388.15257795 112.72875977 385.35620117 C112.72436954 383.34333588 112.7190663 381.3304724 112.71292114 379.31761169 C112.70144273 374.99173561 112.6959633 370.66590838 112.69503975 366.34001732 C112.69309472 359.49350428 112.67501749 352.64709187 112.65428162 345.8006134 C112.60515179 328.79469567 112.57422621 311.78875067 112.55297852 294.78277588 C112.53643906 281.56526898 112.51357946 268.34784856 112.46995777 255.13039953 C112.44822932 248.33103542 112.44011911 241.53183581 112.44235051 234.7324394 C112.44067848 230.49375622 112.42659743 226.25517957 112.40913773 222.01653481 C112.4035598 220.05867414 112.40303299 218.10079119 112.40807533 216.14292908 C112.44585774 199.74731369 110.85917295 186.01220899 99.5625 173.375 C99.04534424 172.78380371 98.52818848 172.19260742 97.99536133 171.58349609 C93.0716257 165.99159721 87.98848968 160.54580381 82.89453125 155.109375 C80.12712087 152.15016391 77.45110038 149.12241984 74.8046875 146.0546875 C72.41218226 143.33075297 69.95594058 140.66656731 67.5 138 C63.8998211 134.09023232 60.35582277 130.14133397 56.875 126.125 C54.45449925 123.38176582 51.97799358 120.69115432 49.5 118 C45.89987244 114.09018405 42.35582395 110.14133532 38.875 106.125 C35.98080664 102.84491419 33.00781108 99.63731943 30.04467773 96.41967773 C27.51259884 93.66526572 25.00964732 90.89257501 22.5625 88.0625 C18.97880907 83.92614348 15.25679808 79.92122782 11.52563477 75.91821289 C10.56246214 74.88175365 9.60949268 73.83570279 8.66784668 72.77964783 C7.03491447 70.9755403 7.03491447 70.9755403 5.19371033 69.4354248 C0.86385886 65.3597136 -0.49062074 62.2637826 -0.79467773 56.30859375 C-0.79357443 53.67780586 -0.75607 51.06551817 -0.68359375 48.4375 C-0.6705159 47.03648365 -0.66056206 45.63543499 -0.65357971 44.234375 C-0.62702377 40.57075504 -0.55841858 36.90911979 -0.48065186 33.24627686 C-0.40866699 29.49909304 -0.37699379 25.75158419 -0.34179688 22.00390625 C-0.26702732 14.6683721 -0.147775 7.33446554 0 0 Z " fill="#6F21F9" transform="translate(0,0)"/>
</svg>
